<?xml version="1.0" encoding="utf-8"?>
  <svg xmlns="http://www.w3.org/2000/svg" xmlns:xlink="http://www.w3.org/1999/xlink" style="display:none;">
    <symbol viewBox="0 0 512 512" id="logo" xmlns="http://www.w3.org/2000/svg">
      <path d="M467.863 141.242v353.102c0 9.75-7.906 17.656-17.656 17.656s-17.656-7.906-17.656-17.656V141.242zm0 0" fill="#805333"/>
      <path d="M335.45 35.309H52.964V512h282.484c9.739-.027 17.625-7.918 17.653-17.656V52.964c-.028-9.737-7.914-17.624-17.653-17.655zm-61.794 256H167.723L163.309 256H278.07zm0 0" fill="#f18d46"/>
      <path d="M70.621 35.309V512H35.31C15.809 512 0 496.191 0 476.691V70.621c0-19.5 15.809-35.312 35.309-35.312zm0 0" fill="#804537"/>
        <g fill="#cc6f56">
          <path d="M52.965 88.277h35.312c4.875 0 8.825-3.953 8.825-8.828s-3.95-8.828-8.825-8.828H52.965a8.829 8.829 0 000 17.656zm0 0M88.277 105.93H52.965a8.829 8.829 0 000 17.656h35.312c4.875 0 8.825-3.953 8.825-8.828s-3.95-8.828-8.825-8.828zm0 0M88.277 141.242H52.965a8.829 8.829 0 000 17.656h35.312c4.875 0 8.825-3.953 8.825-8.828s-3.95-8.828-8.825-8.828zm0 0M88.277 176.55H52.965a8.829 8.829 0 000 17.657h35.312c4.875 0 8.825-3.953 8.825-8.828s-3.95-8.828-8.825-8.828zm0 0M88.277 211.863H52.965a8.826 8.826 0 00-8.828 8.828c0 4.875 3.953 8.825 8.828 8.825h35.312a8.822 8.822 0 008.825-8.825 8.823 8.823 0 00-8.825-8.828zm0 0M88.277 247.172H52.965a8.829 8.829 0 000 17.656h35.312c4.875 0 8.825-3.953 8.825-8.828s-3.95-8.828-8.825-8.828zm0 0M88.277 282.484H52.965c-4.875 0-8.828 3.95-8.828 8.825a8.826 8.826 0 008.828 8.828h35.312a8.823 8.823 0 008.825-8.828 8.822 8.822 0 00-8.825-8.825zm0 0M88.277 317.793H52.965a8.829 8.829 0 000 17.656h35.312c4.875 0 8.825-3.953 8.825-8.828s-3.95-8.828-8.825-8.828zm0 0M88.277 353.102H52.965a8.829 8.829 0 000 17.656h35.312c4.875 0 8.825-3.953 8.825-8.828s-3.95-8.828-8.825-8.828zm0 0M88.277 388.414H52.965a8.829 8.829 0 000 17.656h35.312c4.875 0 8.825-3.953 8.825-8.828s-3.95-8.828-8.825-8.828zm0 0M88.277 423.723H52.965a8.829 8.829 0 000 17.656h35.312c4.875 0 8.825-3.953 8.825-8.828s-3.95-8.828-8.825-8.828zm0 0M88.277 459.035H52.965a8.829 8.829 0 000 17.656h35.312c4.875 0 8.825-3.953 8.825-8.828s-3.95-8.828-8.825-8.828zm0 0"/>
        </g>
      <path d="M317.793 185.379a35.268 35.268 0 01-35.309 35.313L278.07 256H163.31l-4.41-35.309c-19.504.145-35.43-15.546-35.579-35.046-.144-19.5 15.547-35.43 35.047-35.575h1.766c.441-.015.887.012 1.324.086-7.516-25.293 1.856-52.566 23.336-67.898 21.477-15.328 50.316-15.328 71.793 0 21.48 15.332 30.851 42.605 23.336 67.898a6.546 6.546 0 011.324-.086h1.856c19.257.336 34.695 16.047 34.691 35.309zm0 0" fill="#fff"/>
      <path d="M278.07 256l-4.414 35.309H167.723L163.309 256zm0 0" fill="#bdc3c7"/>
      <path d="M132.414 361.93h17.656a8.826 8.826 0 008.828-8.828c0-4.875-3.953-8.825-8.828-8.825h-17.656c-4.875 0-8.828 3.95-8.828 8.825a8.826 8.826 0 008.828 8.828zm0 0M185.379 361.93h123.586a8.826 8.826 0 008.828-8.828c0-4.875-3.953-8.825-8.828-8.825H185.379c-4.875 0-8.828 3.95-8.828 8.825a8.826 8.826 0 008.828 8.828zm0 0M150.07 414.898h-17.656c-4.875 0-8.828 3.95-8.828 8.825s3.953 8.828 8.828 8.828h17.656c4.875 0 8.828-3.953 8.828-8.828s-3.953-8.825-8.828-8.825zm0 0M308.965 414.898H185.379c-4.875 0-8.828 3.95-8.828 8.825s3.953 8.828 8.828 8.828h123.586c4.875 0 8.828-3.953 8.828-8.828s-3.953-8.825-8.828-8.825zm0 0M132.414 397.242h88.277c4.875 0 8.825-3.953 8.825-8.828s-3.95-8.828-8.825-8.828h-88.277a8.829 8.829 0 000 17.656zm0 0M308.965 379.586H256a8.829 8.829 0 000 17.656h52.965a8.829 8.829 0 000-17.656zm0 0" fill="#e6e7e8"/>
      <path d="M512 88.277C512 39.523 484.336 0 450.207 0s-61.793 39.523-61.793 88.277c0 48.75 27.664 88.274 61.793 88.274S512 137.027 512 88.277zm0 0" fill="#cb8252"/>
      <path d="M187.32 169.047a8.857 8.857 0 01-4.234 1.062 8.789 8.789 0 01-7.684-4.593 27.204 27.204 0 00-17.035-15.446h1.766c.441-.015.887.012 1.324.086a61.996 61.996 0 01-2.559-17.742c.356-.02.711.012 1.059.09a42.593 42.593 0 0130.895 24.539 8.823 8.823 0 01-3.531 12.004zm0 0M283.012 150.07a27.204 27.204 0 00-17.035 15.446 8.787 8.787 0 01-7.68 4.593 8.86 8.86 0 01-4.238-1.062 8.823 8.823 0 01-3.532-12.004 42.812 42.812 0 0130.895-24.54c.348-.077.707-.108 1.062-.089a62.136 62.136 0 01-2.562 17.742 6.546 6.546 0 011.324-.086zm0 0" fill="#e6e7e8"/>
    </symbol>
    <symbol viewBox="0 0 512 512" id="arrow" xmlns="http://www.w3.org/2000/svg" fill="currentColor">
      <path  d="m360.4 251.12l-180.2 180.2-180.2-180.2v-118.85l137.07 137.06v-269.33l87.22 0.000099182v268.38l136.32-136.32-0.21 119.06z" />
    </symbol>
    <symbol viewBox="0 0 512 512" id="search" xmlns="http://www.w3.org/2000/svg" fill="currentColor">
      <path d="M174.298 340.426c-91.603 0-166.128-74.524-166.128-166.128S82.695 8.17 174.298 8.17s166.128 74.524 166.128 166.128-74.525 166.128-166.128 166.128z" fill="#ffa72e"/>
      <path d="M174.298 307.745c-73.583 0-133.447-59.864-133.447-133.447S100.715 40.851 174.298 40.851s133.447 59.864 133.447 133.447-59.864 133.447-133.447 133.447z" fill="#fff"/>
      <path d="M84.426 182.468a8.17 8.17 0 01-8.17-8.17c0-54.061 43.982-98.043 98.043-98.043 4.513 0 8.17 3.658 8.17 8.17s-3.657 8.17-8.17 8.17c-45.051 0-81.702 36.652-81.702 81.702a8.171 8.171 0 01-8.171 8.171z" fill="#d8dbe2"/>
      <path fill="#a3e1ff" d="M503.829 457.614l-46.217 46.217-158.216-158.216 46.217-46.216z"/>
      <g fill="#080342">
        <path d="M509.608 451.836L357.166 299.394l1.926-1.926a8.17 8.17 0 000-11.554 8.17 8.17 0 00-11.555 0l-7.703 7.703-17.332 17.332-19.373-19.373c28.231-30.987 45.467-72.156 45.467-117.277C348.596 78.19 270.407 0 174.298 0S0 78.19 0 174.298s78.189 174.298 174.298 174.298c45.121 0 86.292-17.236 117.276-45.467l19.373 19.373-25.035 25.035a8.17 8.17 0 005.778 13.947c2.09 0 4.182-.797 5.778-2.393l1.926-1.926 152.442 152.442a8.168 8.168 0 0011.556 0l46.217-46.217a8.174 8.174 0 00-.001-11.554zM16.34 174.298C16.34 87.2 87.2 16.341 174.298 16.341S332.255 87.2 332.255 174.298c0 43.341-17.551 82.659-45.913 111.227-.145.125-.291.249-.429.388-.138.138-.263.284-.389.43-28.569 28.362-67.885 45.912-111.226 45.912-87.098 0-157.958-70.859-157.958-157.957zm441.273 317.978L310.948 345.611l34.662-34.662 146.665 146.664-34.662 34.663z"/>
        <path d="M315.915 174.298c0-31.864-10.379-61.978-30.016-87.089a8.17 8.17 0 00-11.469-1.403 8.17 8.17 0 00-1.403 11.469c17.368 22.21 26.548 48.844 26.548 77.023 0 69.077-56.199 125.277-125.277 125.277S49.021 243.376 49.021 174.298 105.22 49.021 174.298 49.021c28.18 0 54.813 9.18 77.022 26.548a8.168 8.168 0 0011.469-1.403 8.17 8.17 0 00-1.403-11.469c-25.109-19.637-55.224-30.016-87.088-30.016-78.089 0-141.617 63.529-141.617 141.617s63.528 141.617 141.617 141.617 141.617-63.529 141.617-141.617z"/>
      </g>
    </symbol>
  </svg>